# xmcd
#
# Track frame offsets:
#	150
#	19922
#	38985
#	55917
#	70132
#	87935
#	104410
#	121065
#	137707
#	156387
#	171505
#	188652
#	205210
#	225137
#
# Disc length: 3243 seconds
#
# Revision: 0
# Processed by: cddbd v1.4PL0 Copyright (c) Steve Scherf et al.
# Submitted via: dBpowerAMP V4.0
#
DISCID=bb0ca90e
DTITLE=йымстамтимос - пакеьа
DYEAR=2003
DGENRE=Country
TTITLE0=пакеьа
TTITLE1=аута ха йамы
TTITLE2=аута поу неяеис
TTITLE3=ас еуяисйа тг дулалг
TTITLE4=паки ха акгтеьы
TTITLE5=ла дем хес маяхеис
TTITLE6=вяомиа соу покка
TTITLE7=лиа йаядиа спаслемг
TTITLE8=поис апо тоус дуо
TTITLE9=текеиысе ле
TTITLE10=еис аяяыстиа
TTITLE11=евы лахеи м╢'ацапы
TTITLE12=еяволаи
TTITLE13=пакеьа(ояв)
EXTD=
EXTT0=
EXTT1=
EXTT2=
EXTT3=
EXTT4=
EXTT5=
EXTT6=
EXTT7=
EXTT8=
EXTT9=
EXTT10=
EXTT11=
EXTT12=
EXTT13=
PLAYORDER=
